<svg xmlns="http://www.w3.org/2000/svg" height="512" viewBox="0 0 448 512" width="448"><path d="m48 32c-26.5 0-48 21.5-48 48v352c0 26.5 21.5 48 48 48h352c26.5 0 48-21.5 48-48v-352c0-26.5-21.5-48-48-48zm16 64h320v320h-320zm97.3457 83.27148c-26.48541 0-42.63281 17.22603-42.63281 39.18946 0 21.96348 19.37833 31.43868 37.03516 42.20508 13.13499 7.96715 26.91406 13.35091 26.91406 27.5625 0 13.78101-12.27179 23.6875-26.91406 23.6875-14.42683 0-23.90104-3.23309-34.88282-9.90821l-2.58593 17.01172c11.19722 5.16784 22.60906 7.53711 38.32812 7.53711 21.96359 0 45.00391-13.56447 45.00391-40.48047 0-20.45618-18.08792-29.71697-35.5293-40.05273-13.56586-8.18245-27.99219-13.78058-27.99219-28.85352 0-11.19707 8.18249-23.46875 24.33204-23.46875 13.99635 0 23.68729 2.14946 35.96093 9.47071l1.07617-17.00782c-11.41267-4.73722-19.5951-6.89258-38.11328-6.89258zm134.75391 0c-41.77367 0-73.42578 32.51443-73.42578 73.85743 0 47.15681 37.68263 72.99804 72.78125 72.99804 17.65683 0 32.29805-2.36978 43.92578-8.18359l-1.29102-16.36524c-13.13499 7.1058-27.13255 9.90626-41.1289 9.90626-30.5768 0-54.90821-25.62467-54.90821-59.64649 0-35.95975 23.89985-58.13672 51.89258-58.13672 17.65683 0 31.22459 2.79834 44.14453 9.9043l1.29102-16.15039c-11.84315-5.5985-21.53311-8.1836-43.28125-8.1836z"></path></svg>